<svg width="31" height="34" viewBox="0 0 31 34" fill="none" xmlns="http://www.w3.org/2000/svg">
<path d="M29.2967 23.2277V11.0958C29.2962 10.5639 29.1558 10.0415 28.8896 9.58107C28.6234 9.12059 28.2408 8.73821 27.7802 8.47227L17.1648 2.40634C16.7038 2.14014 16.1807 2 15.6484 2C15.116 2 14.5929 2.14014 14.1319 2.40634L3.51648 8.47227C3.05587 8.73821 2.67329 9.12059 2.40712 9.58107C2.14095 10.0415 2.00055 10.5639 2 11.0958V23.2277C2.00055 23.7595 2.14095 24.2819 2.40712 24.7424C2.67329 25.2029 3.05587 25.5852 3.51648 25.8512L14.1319 31.9171C14.5929 32.1833 15.116 32.3235 15.6484 32.3235C16.1807 32.3235 16.7038 32.1833 17.1648 31.9171L27.7802 25.8512C28.2408 25.5852 28.6234 25.2029 28.8896 24.7424C29.1558 24.2819 29.2962 23.7595 29.2967 23.2277Z" stroke="#7486A1" stroke-width="3" stroke-linecap="round" stroke-linejoin="round"/>
<path d="M2.40942 9.51855L15.6483 17.1768L28.8872 9.51855" stroke="#7486A1" stroke-width="3" stroke-linecap="round" stroke-linejoin="round"/>
<path d="M15.6483 32.4483V17.1621" stroke="#7486A1" stroke-width="3" stroke-linecap="round" stroke-linejoin="round"/>
</svg>
