<svg width="60" height="42" viewBox="0 0 60 42" fill="none" xmlns="http://www.w3.org/2000/svg">
<g clip-path="url(#clip0_297_26461)">
<path d="M5.46011 0C6.42171 4.36788e-05 7.36622 0.249649 8.19788 0.723522C9.02955 1.19739 9.71881 1.87869 10.1958 2.69835L32.5214 41.2734H19.998L0.720119 7.99867C-1.34608 4.4303 1.27896 0 5.46011 0Z" fill="#10162F"/>
<path d="M17.3666 0H29.9064L49.1931 33.152C49.6646 33.9627 49.9133 34.8797 49.9149 35.8133C49.9165 36.7468 49.6708 37.6646 49.202 38.4768C48.7332 39.289 48.0574 39.9676 47.2408 40.4461C46.4243 40.9245 45.4951 41.1864 44.5444 41.206C43.5563 41.2261 42.581 40.9839 41.7216 40.5049C40.8621 40.0259 40.1504 39.328 39.6616 38.4848L17.3666 0Z" fill="#10162F"/>
<path d="M50.5983 0H52.5033C57.7409 0 60.8019 5.79556 57.7827 9.9974L55.8777 12.649C53.3041 16.2308 48.0387 16.0982 45.4641 12.5163L43.7696 9.60985L38.1819 0H50.5983Z" fill="#10162F"/>
</g>
<defs>
<clipPath id="clip0_297_26461">
<rect width="60" height="41.9133" fill="white"/>
</clipPath>
</defs>
</svg>
