<svg width="37" height="31" viewBox="0 0 37 31" fill="none" xmlns="http://www.w3.org/2000/svg">
<path d="M26.2637 29.2971V26.2642C26.2637 24.6554 25.6246 23.1125 24.4871 21.9749C23.3495 20.8373 21.8066 20.1982 20.1978 20.1982H8.06593C6.45715 20.1982 4.91425 20.8373 3.77667 21.9749C2.63909 23.1125 2 24.6554 2 26.2642V29.2971" stroke="#7486A1" stroke-width="3" stroke-linecap="round" stroke-linejoin="round"/>
<path d="M14.1319 14.1319C17.482 14.1319 20.1978 11.4161 20.1978 8.06593C20.1978 4.71581 17.482 2 14.1319 2C10.7817 2 8.06592 4.71581 8.06592 8.06593C8.06592 11.4161 10.7817 14.1319 14.1319 14.1319Z" stroke="#7486A1" stroke-width="3" stroke-linecap="round" stroke-linejoin="round"/>
<path d="M35.3627 29.2963V26.2633C35.3617 24.9193 34.9143 23.6137 34.0909 22.5514C33.2675 21.4892 32.1146 20.7305 30.8132 20.3945" stroke="#7486A1" stroke-width="3" stroke-linecap="round" stroke-linejoin="round"/>
<path d="M24.7473 2.19727C26.0521 2.53135 27.2086 3.2902 28.0345 4.35418C28.8604 5.41815 29.3087 6.72674 29.3087 8.07364C29.3087 9.42054 28.8604 10.7291 28.0345 11.7931C27.2086 12.8571 26.0521 13.6159 24.7473 13.95" stroke="#7486A1" stroke-width="3" stroke-linecap="round" stroke-linejoin="round"/>
</svg>
